# xmcd
#
# Track frame offsets:
#	183
#	11670
#	23820
#	32540
#	46078
#	58308
#	69213
#	83400
#	96185
#	107215
#	119978
#	132610
#	146908
#	158420
#	170093
#	179740
#
# Disc length: 2587 seconds
#
# Revision: 1
# Processed by: cddbd v1.5.1PL0 Copyright (c) Steve Scherf et al.
# Submitted via: audiograbber 1.83.01
#
DISCID=e10a1910
DTITLE=Freddy Fender - Te very best of
DYEAR=1992
DGENRE=Country
TTITLE0=Before the next teardrop falls
TTITLE1=Tell it like it is
TTITLE2=Breaking up is hard to do
TTITLE3=These arms of mine
TTITLE4=Wasted days and wasted nights
TTITLE5=The rains came
TTITLE6=Wild side of life
TTITLE7=You'll loose a good thing
TTITLE8=Mathilda
TTITLE9=Donna
TTITLE10=Almost persuaded
TTITLE11=La Bamba
TTITLE12=I'm leaving it all up to you
TTITLE13=Coming home soon
TTITLE14=But I do
TTITLE15=Since I met you baby
EXTD=
EXTT0=
EXTT1=
EXTT2=
EXTT3=
EXTT4=
EXTT5=
EXTT6=
EXTT7=
EXTT8=
EXTT9=
EXTT10=
EXTT11=
EXTT12=
EXTT13=
EXTT14=
EXTT15=
PLAYORDER=
